<svg xmlns="http://www.w3.org/2000/svg" width="192" height="192" viewBox="0 0 192 192">
  <rect width="192" height="192" fill="#1C4F4A"/>
  <!-- Left ear -->
  <ellipse cx="67" cy="60" rx="17" ry="37" fill="#F5EFE0"/>
  <ellipse cx="67" cy="61" rx="10" ry="28" fill="#E8A0A8"/>
  <!-- Right ear -->
  <ellipse cx="125" cy="60" rx="17" ry="37" fill="#F5EFE0"/>
  <ellipse cx="125" cy="61" rx="10" ry="28" fill="#E8A0A8"/>
  <!-- Head -->
  <ellipse cx="96" cy="120" rx="52" ry="48" fill="#F5EFE0"/>
  <!-- Eyes -->
  <circle cx="79" cy="108" r="7" fill="#1C4F4A"/>
  <circle cx="113" cy="108" r="7" fill="#1C4F4A"/>
  <circle cx="82" cy="105" r="2.5" fill="white"/>
  <circle cx="116" cy="105" r="2.5" fill="white"/>
  <!-- Nose -->
  <ellipse cx="96" cy="123" rx="5" ry="3.5" fill="#E8A0A8"/>
  <!-- Mouth -->
  <path d="M96 127 Q89 133 84 131" stroke="#B08090" stroke-width="1.5" fill="none" stroke-linecap="round"/>
  <path d="M96 127 Q103 133 108 131" stroke="#B08090" stroke-width="1.5" fill="none" stroke-linecap="round"/>
  <!-- Whiskers -->
  <line x1="63" y1="122" x2="89" y2="120" stroke="#C8C0B0" stroke-width="1" stroke-linecap="round"/>
  <line x1="103" y1="120" x2="129" y2="122" stroke="#C8C0B0" stroke-width="1" stroke-linecap="round"/>
</svg>
